<svg xmlns="http://www.w3.org/2000/svg" viewBox="0 0 64 64">
  <defs>
    <linearGradient id="wand" x1="12" y1="10" x2="20" y2="46" gradientUnits="userSpaceOnUse">
      <stop offset="0%" stop-color="#D8D4CE" />
      <stop offset="34%" stop-color="#BFBBBA" />
      <stop offset="72%" stop-color="#6E6B68" />
      <stop offset="100%" stop-color="#2E2C2A" />
    </linearGradient>
    <radialGradient id="tip" cx="0.5" cy="0.5" r="0.5">
      <stop offset="0%" stop-color="#8377E8" stop-opacity="0.95" />
      <stop offset="100%" stop-color="#5A4FD0" stop-opacity="0" />
    </radialGradient>
  </defs>
  <rect width="64" height="64" rx="14" fill="#18160F" />
  <ellipse cx="49" cy="19" rx="12" ry="12" fill="url(#tip)" />
  <path
    d="M10 40c-1.7-.2-3-1.5-3.1-3.2-.1-1.8 1.1-3.3 2.8-3.5l7.3-.9c2.6-.3 5.2.1 7.6 1.1l2.1.8c2.4 1 5 1.2 7.5.6l19.5-4.6c2.1-.5 4-1.9 5-3.9l.8-1.4c.8-1.5 2.3-2.4 4-2.4 3.1 0 5.3 3 4.3 5.8-.7 2.1-2.5 3.6-4.6 4.1L42.4 37c-2.8.7-5.8.6-8.5-.4l-2.2-.8c-2.3-.8-4.8-1.1-7.2-.8l-12.8 4c-.5.2-1.1.3-1.7.3Z"
    fill="url(#wand)"
  />
  <circle cx="48.6" cy="19.2" r="3.2" fill="#8377E8" />
</svg>
